<svg width="934" height="600" viewBox="0 0 934 600" fill="none" xmlns="http://www.w3.org/2000/svg">
<path fill-rule="evenodd" clip-rule="evenodd" d="M169.617 0H169.533L169.449 0.000408173C140.239 0.142433 98.7355 10.7792 63.7367 41.446C27.6181 73.094 1.4101 123.45 0.0518036 196.969C-1.31499 270.948 24.4854 320.567 63.1037 349.79C99.1597 377.075 141.765 383.038 171.245 380.442H376.225C395.279 380.442 410.725 364.996 410.725 345.942C410.725 326.889 395.279 311.442 376.225 311.442H169.617H167.856L166.105 311.622C149.609 313.31 124.538 309.75 104.74 294.768C86.7285 281.139 68.0056 254.235 69.04 198.243C70.083 141.791 89.3988 110.701 109.21 93.3422C130.105 75.0328 154.889 69.0914 169.71 69H899.5C918.553 69 934 53.5538 934 34.5C934 15.4462 918.553 0 899.5 0H169.617ZM383.911 600H383.992L384.072 600C384.121 599.999 384.169 599.999 384.218 599.999C384.312 600 384.406 600 384.5 600H899.5C918.553 600 934 584.554 934 565.5C934 546.446 918.553 531 899.5 531H524.268C550.808 497.866 568.761 451.844 569.941 390.511C570.982 336.414 557.928 294.758 536.194 264H839.5C858.553 264 874 248.554 874 229.5C874 210.446 858.553 195 839.5 195H399.5C399.147 195 398.797 195.005 398.447 195.016C392.769 194.954 387.369 195.167 382.332 195.6H152.116C133.062 195.6 117.616 211.047 117.616 230.1C117.616 249.154 133.062 264.6 152.116 264.6H383.911H385.601L387.283 264.435C406.921 262.506 436.456 266.557 459.777 283.497C481.11 298.993 502.117 328.757 500.954 389.184C499.78 450.156 478.051 484.271 454.983 503.673C430.7 524.097 401.688 530.898 383.823 531H36.4996C17.4457 531 1.99957 546.446 1.99957 565.5C1.99957 584.554 17.4457 600 36.4996 600H383.911Z" fill="#3b82f6"/>
</svg>
